<svg width="24" height="24" viewBox="0 0 24 24" fill="none" xmlns="http://www.w3.org/2000/svg">
<g clip-path="url(#clip0_169_8177)">
<path d="M15.0544 6.32736H13.5271V5.61827C13.5271 5.22554 13.1889 4.90918 12.7635 4.90918H11.2362C10.8107 4.90918 10.4726 5.22554 10.4726 5.61827V6.32736H8.94528C8.51982 6.32736 8.18164 6.64372 8.18164 7.03645V18.3819C8.18164 18.7746 8.51982 19.091 8.94528 19.091H15.0544C15.4798 19.091 15.818 18.7746 15.818 18.3819V7.03645C15.818 6.64372 15.4798 6.32736 15.0544 6.32736ZM14.5962 17.7492C14.4326 17.9019 14.2144 18.0001 14.0071 18.0001H10.0035C9.77437 18.0001 9.5671 17.9128 9.41437 17.7492C9.25073 17.5965 9.16346 17.3892 9.16346 17.1819C9.16346 16.9746 9.25073 16.7565 9.41437 16.6037C9.578 16.451 9.78528 16.3637 10.0035 16.3637H14.0071C14.2362 16.3637 14.4544 16.4401 14.5962 16.6037C14.7598 16.7565 14.8362 16.9637 14.8362 17.1819C14.8362 17.4001 14.7489 17.6074 14.5962 17.7492ZM14.5962 15.5674C14.4326 15.7201 14.2144 15.8183 14.0071 15.8183H10.0035C9.77437 15.8183 9.5671 15.731 9.41437 15.5674C9.25073 15.4146 9.16346 15.2074 9.16346 15.0001C9.16346 14.7928 9.25073 14.5746 9.41437 14.4219C9.578 14.2692 9.78528 14.1819 10.0035 14.1819H14.0071C14.2362 14.1819 14.4544 14.2583 14.5962 14.4219C14.7598 14.5746 14.8362 14.7819 14.8362 15.0001C14.8362 15.2183 14.7489 15.4255 14.5962 15.5674ZM14.5962 13.3855C14.4326 13.5383 14.2144 13.6365 14.0071 13.6365H10.0035C9.77437 13.6365 9.5671 13.5492 9.41437 13.3855C9.25073 13.2328 9.16346 13.0255 9.16346 12.8183C9.16346 12.611 9.25073 12.3928 9.41437 12.2401C9.578 12.0874 9.78528 12.0001 10.0035 12.0001H14.0071C14.2362 12.0001 14.4544 12.0765 14.5962 12.2401C14.7598 12.3928 14.8362 12.6001 14.8362 12.8183C14.8362 13.0365 14.7489 13.2437 14.5962 13.3855Z" fill="white"/>
<path d="M12 0C5.36727 0 0 5.36727 0 12C0 18.6327 5.36727 24 12 24C18.6327 24 24 18.6327 24 12C24 5.36727 18.6327 0 12 0ZM12 21.6C6.69818 21.6 2.4 17.3018 2.4 12C2.4 6.69818 6.69818 2.4 12 2.4C17.3018 2.4 21.6 6.69818 21.6 12C21.6 17.3018 17.3018 21.6 12 21.6Z" fill="white"/>
</g>
<defs>
<clipPath id="clip0_169_8177">
<rect width="24" height="24" fill="white"/>
</clipPath>
</defs>
</svg>
