<svg width="24" height="24" viewBox="0 0 24 24" fill="none" xmlns="http://www.w3.org/2000/svg">
<g clip-path="url(#clip0_169_8201)">
<path d="M15.0544 6.32736H13.5271V5.61827C13.5271 5.22554 13.1889 4.90918 12.7635 4.90918H11.2362C10.8107 4.90918 10.4726 5.22554 10.4726 5.61827V6.32736H8.94528C8.51982 6.32736 8.18164 6.64372 8.18164 7.03645V18.3819C8.18164 18.7746 8.51982 19.091 8.94528 19.091H15.0544C15.4798 19.091 15.818 18.7746 15.818 18.3819V7.03645C15.818 6.64372 15.4798 6.32736 15.0544 6.32736ZM12.5671 15.8401C12.4253 16.0037 12.2071 16.091 11.9998 16.091C11.7925 16.091 11.5744 16.0037 11.4216 15.8401C11.2689 15.6765 11.1816 15.4692 11.1816 15.251C11.1816 15.0328 11.2689 14.8037 11.4216 14.6619C11.5744 14.4983 11.7816 14.411 11.9998 14.411C12.218 14.411 12.4253 14.4983 12.5671 14.6619C12.7198 14.8255 12.818 15.0328 12.818 15.251C12.818 15.4692 12.7307 15.6874 12.5671 15.8401ZM12.818 12.7528C12.818 12.9819 12.7307 13.1892 12.5671 13.3419C12.4253 13.5055 12.2071 13.5819 11.9998 13.5819C11.7925 13.5819 11.5744 13.5055 11.4216 13.3419C11.2689 13.1783 11.1816 12.971 11.1816 12.7528V8.73827C11.1816 8.50918 11.2689 8.30191 11.4216 8.14918C11.5744 7.98554 11.7816 7.90918 11.9998 7.90918C12.218 7.90918 12.4253 7.98554 12.5671 8.14918C12.7198 8.31282 12.818 8.531 12.818 8.73827V12.7528Z" fill="white"/>
<path d="M12 0C5.36727 0 0 5.36727 0 12C0 18.6327 5.36727 24 12 24C18.6327 24 24 18.6327 24 12C24 5.36727 18.6327 0 12 0ZM12 21.6C6.69818 21.6 2.4 17.3018 2.4 12C2.4 6.69818 6.69818 2.4 12 2.4C17.3018 2.4 21.6 6.69818 21.6 12C21.6 17.3018 17.3018 21.6 12 21.6Z" fill="white"/>
</g>
<defs>
<clipPath id="clip0_169_8201">
<rect width="24" height="24" fill="white"/>
</clipPath>
</defs>
</svg>
