<svg width="24" height="24" viewBox="0 0 24 24" fill="none" xmlns="http://www.w3.org/2000/svg">
<path d="M12 0C18.6274 0 24 5.37258 24 12C24 18.6274 18.6274 24 12 24C5.37258 24 0 18.6274 0 12C2.57703e-07 5.37258 5.37258 2.57711e-07 12 0ZM12 2.40039C6.69807 2.40039 2.40039 6.69807 2.40039 12C2.40039 17.3019 6.69807 21.5996 12 21.5996C17.3019 21.5996 21.5996 17.3019 21.5996 12C21.5996 6.69807 17.3019 2.40039 12 2.40039ZM12.6006 10.5596H15.8984C16.2909 10.5599 16.5303 10.9923 16.3223 11.3252L11.4004 19.2002V13.4395H8.10254C7.70982 13.4395 7.47057 13.0078 7.67871 12.6748L12.6006 4.7998V10.5596Z" fill="white"/>
</svg>
