<svg width="24" height="24" viewBox="0 0 24 24" fill="none" xmlns="http://www.w3.org/2000/svg">
<path d="M12 0C18.6274 0 24 5.37258 24 12C24 18.6274 18.6274 24 12 24C5.37258 24 0 18.6274 0 12C2.57703e-07 5.37258 5.37258 2.57711e-07 12 0ZM12 2.40039C6.69807 2.40039 2.40039 6.69807 2.40039 12C2.40039 17.3019 6.69807 21.5996 12 21.5996C17.3019 21.5996 21.5996 17.3019 21.5996 12C21.5996 6.69807 17.3019 2.40039 12 2.40039ZM13.1006 10.0596H15.8984C16.6836 10.0599 17.1622 10.9239 16.7461 11.5898L11.8242 19.4648L10.9004 20.9434V13.9395H8.10254C7.31728 13.9395 6.83811 13.0761 7.25391 12.4102L12.1758 4.53516L13.1006 3.05664V10.0596ZM8.10254 12.9395H11.9004V17.4561L15.8984 11.0596H12.1006V6.54199L8.10254 12.9395Z" fill="white"/>
</svg>
