<svg width="24" height="24" viewBox="0 0 24 24" fill="none" xmlns="http://www.w3.org/2000/svg">
<g clip-path="url(#clip0_169_8139)">
<path d="M9.04964 4.9514L13.4047 10.1559H16.2154C17.5042 10.1559 18.5596 11.2824 18.5596 12.6793V13.3215C18.5596 14.7183 17.5042 15.8449 16.2154 15.8449H14.9267L14.7712 16.4644C14.4601 17.6924 13.3825 18.5485 12.1382 18.5485C10.8939 18.5485 9.81621 17.6924 9.50514 16.4644L9.3496 15.8449H2.18164C2.40384 16.4194 2.67047 16.9714 2.98155 17.5008H8.13864C8.80522 19.123 10.3717 20.2045 12.1382 20.2045C13.9046 20.2045 15.4711 19.123 16.1377 17.5008H16.2154C18.4041 17.5008 20.1816 15.6308 20.1816 13.3215V12.6793C20.1816 10.3812 18.4041 8.49994 16.2154 8.49994H14.149L9.79399 3.29541H7.2929C6.3819 3.71222 5.54867 4.27548 4.81542 4.9514H9.04964Z" fill="#FEFEFE"/>
<path d="M12 0C8.81455 0 5.93455 1.24364 3.78545 3.27273C3.26182 3.76364 2.79273 4.29818 2.36727 4.87636C0.883636 6.86182 0 9.32727 0 12C0 18.6327 5.36727 24 12 24C18.6327 24 24 18.6327 24 12C24 5.36727 18.6327 0 12 0ZM12 21.6C8.54182 21.6 5.50909 19.7564 3.82909 17.0182C3.52364 16.5164 3.25091 15.9818 3.04364 15.4145C2.64 14.3564 2.41091 13.2 2.41091 12C2.41091 9.16364 3.64364 6.63273 5.59636 4.87636C6.31636 4.22182 7.13455 3.68727 8.02909 3.27273C9.24 2.71636 10.5927 2.4 12.0109 2.4C17.3127 2.4 21.6109 6.69818 21.6109 12C21.6109 17.3018 17.3127 21.6 12.0109 21.6H12Z" fill="#FEFEFE"/>
<path d="M7.36359 13.1719C7.57632 13.1719 7.78905 13.2537 7.93632 13.4174C8.08359 13.581 8.18177 13.7937 8.18177 14.0065C8.18177 14.2192 8.09996 14.4483 7.93632 14.5955C7.78905 14.7592 7.57632 14.841 7.36359 14.841C7.15086 14.841 6.93814 14.7592 6.79086 14.5955C6.64359 14.4319 6.54541 14.2192 6.54541 14.0065C6.54541 13.7937 6.62723 13.5646 6.79086 13.4174C6.93814 13.2537 7.15086 13.1719 7.36359 13.1719ZM7.36359 6.65918C7.57632 6.65918 7.78905 6.741 7.93632 6.90463C8.08359 7.06827 8.18177 7.281 8.18177 7.49373V11.5028C8.18177 11.7319 8.09996 11.9446 7.93632 12.0919C7.78905 12.2555 7.57632 12.3374 7.36359 12.3374C7.15086 12.3374 6.93814 12.2555 6.79086 12.0919C6.64359 11.9283 6.54541 11.7155 6.54541 11.5028V7.49373C6.54541 7.26463 6.62723 7.05191 6.79086 6.90463C6.93814 6.741 7.15086 6.65918 7.36359 6.65918Z" fill="#FEFEFE"/>
</g>
<defs>
<clipPath id="clip0_169_8139">
<rect width="24" height="24" fill="white"/>
</clipPath>
</defs>
</svg>
