<svg width="24" height="25" viewBox="0 0 24 25" fill="none" xmlns="http://www.w3.org/2000/svg">
<path fill-rule="evenodd" clip-rule="evenodd" d="M12 21.8856C17.3019 21.8856 21.6 17.5876 21.6 12.2856C21.6 6.98371 17.3019 2.68564 12 2.68564C6.69807 2.68564 2.4 6.98371 2.4 12.2856C2.4 17.5876 6.69807 21.8856 12 21.8856ZM12 24.2856C18.6274 24.2856 24 18.9131 24 12.2856C24 5.65823 18.6274 0.285645 12 0.285645C5.37258 0.285645 0 5.65823 0 12.2856C0 18.9131 5.37258 24.2856 12 24.2856Z" fill="white"/>
<path d="M7.60028 6.28564H16.3998C17.8366 6.28564 19 7.3557 19 8.66891V21.1428L17.8009 22.2856V8.66891C17.8009 7.961 17.1721 7.38619 16.3998 7.38619H15.5162C15.1844 8.47483 13.7646 9.26974 12.0041 9.26974C10.2443 9.26974 8.82049 8.47483 8.48785 7.38619H7.60028C6.82791 7.38619 6.19993 7.961 6.19993 8.66891V22.2856L5 21.1428V8.66891C5 7.3557 6.16831 6.28564 7.60028 6.28564ZM12.0041 8.30603C13.0717 8.30603 13.9926 7.91712 14.356 7.38619H9.63585C10.0042 7.91712 10.9356 8.30603 12.0041 8.30603Z" fill="#FEFEFE"/>
<path d="M12 19.2456C12.26 19.2456 12.52 19.3456 12.7 19.5456C12.88 19.7456 13 20.0056 13 20.2656C13 20.5256 12.9 20.8056 12.7 20.9856C12.52 21.1856 12.26 21.2856 12 21.2856C11.74 21.2856 11.48 21.1856 11.3 20.9856C11.12 20.7856 11 20.5256 11 20.2656C11 20.0056 11.1 19.7256 11.3 19.5456C11.48 19.3456 11.74 19.2456 12 19.2456ZM12 11.2856C12.26 11.2856 12.52 11.3856 12.7 11.5856C12.88 11.7856 13 12.0456 13 12.3056V17.2056C13 17.4856 12.9 17.7456 12.7 17.9256C12.52 18.1256 12.26 18.2256 12 18.2256C11.74 18.2256 11.48 18.1256 11.3 17.9256C11.12 17.7256 11 17.4656 11 17.2056V12.3056C11 12.0256 11.1 11.7656 11.3 11.5856C11.48 11.3856 11.74 11.2856 12 11.2856Z" fill="#FEFEFE"/>
</svg>
