<?xml version="1.0" encoding="UTF-8"?>
<svg id="Layer_1" xmlns="http://www.w3.org/2000/svg" version="1.1" viewBox="0 0 72 64">
  <!-- Generator: Adobe Illustrator 29.5.1, SVG Export Plug-In . SVG Version: 2.1.0 Build 141)  -->
  <defs>
    <style>
      .st0 {
        fill: #fff;
      }

      .st1 {
        fill: none;
        stroke: #fff;
        stroke-linecap: round;
        stroke-linejoin: round;
        stroke-width: 4.47px;
      }
    </style>
  </defs>
  <path class="st1" d="M69.67,3H3v50h35l16.67,8.33v-8.33h15V3Z"/>
  <path class="st0" d="M43.92,28.07l-2.39-1.37c-.54-.31-.54-1.09,0-1.42l2.39-1.37c1.03-.59,1.37-1.9.78-2.93-.59-1.03-1.91-1.37-2.94-.78l-2.39,1.37c-.54.31-1.23-.08-1.23-.7v-2.73c0-1.17-.96-2.15-2.16-2.15s-2.16.96-2.16,2.15v2.73c0,.62-.69,1.03-1.23.7l-2.39-1.37c-1.03-.59-2.35-.24-2.94.78-.59,1.03-.25,2.34.78,2.93l2.39,1.37c.54.31.54,1.09,0,1.42l-2.39,1.37c-1.03.59-1.37,1.9-.78,2.93.59,1.03,1.91,1.37,2.94.78l2.39-1.37c.54-.31,1.23.08,1.23.7v2.73c0,1.17.96,2.15,2.16,2.15s2.16-.96,2.16-2.15v-2.73c0-.62.69-1.03,1.23-.7l2.39,1.37c1.03.59,2.35.24,2.94-.78.6-1.01.25-2.33-.78-2.93Z"/>
</svg>