<svg width="32" height="32" viewBox="0 0 32 32" fill="none" xmlns="http://www.w3.org/2000/svg">
<path d="M24.1091 19.8655H24.0131L22.5859 10.906C22.2531 8.7941 20.6083 7.25818 18.6883 7.25818H13.3059C11.3859 7.25818 9.74106 8.7941 9.40826 10.906L7.98106 19.8655H7.78906H24.1155H24.1091ZM15.0467 9.99723C15.0467 9.74125 15.1491 9.49806 15.3283 9.31887C15.5075 9.13968 15.7507 9.03728 16.0003 9.03728C16.2499 9.03728 16.4931 9.13968 16.6723 9.31887C16.8515 9.49806 16.9539 9.74125 16.9539 9.99723V14.5922C16.9539 14.8482 16.8515 15.0914 16.6723 15.2706C16.4931 15.4497 16.2499 15.5521 16.0003 15.5521C15.7507 15.5521 15.5075 15.4497 15.3283 15.2706C15.1491 15.0914 15.0467 14.8482 15.0467 14.5922V9.99723ZM15.3283 16.7873C15.5075 16.6081 15.7507 16.5057 16.0003 16.5057C16.2499 16.5057 16.4931 16.6081 16.6723 16.7873C16.8515 16.9665 16.9539 17.2097 16.9539 17.4656C16.9539 17.7216 16.8515 17.9648 16.6723 18.144C16.4931 18.3232 16.2499 18.4256 16.0003 18.4256C15.7507 18.4256 15.5075 18.3232 15.3283 18.144C15.1491 17.9648 15.0467 17.7216 15.0467 17.4656C15.0467 17.2097 15.1491 16.9665 15.3283 16.7873Z" fill="#ED1B23"/>
<path d="M29.6 7.43731C28.2688 5.31262 26.4512 3.52072 24.3008 2.23439C21.8816 0.788062 19.04 -0.0310946 16 0.000903701C13.0816 0.032902 10.3424 0.845659 7.9872 2.23439C5.7088 3.57831 3.7824 5.46622 2.3936 7.7189C0.8768 10.1828 0 13.0754 0 16.1664C0 19.2575 0.8768 22.1309 2.3936 24.5628C3.616 26.5211 5.248 28.185 7.1808 29.4393C9.7088 31.0905 12.7424 32.0312 16 31.9992C19.1424 31.9672 22.0672 31.0265 24.544 29.4393C26.592 28.121 28.3264 26.3611 29.6 24.2876C31.1168 21.8237 32 18.9311 32 15.8401C32 12.749 31.1232 9.86918 29.6 7.44371V7.43731ZM25.9264 24.4092H6.0672V21.3694C6.0672 20.5374 6.7392 19.8655 7.5712 19.8655H7.9744L9.4016 10.9059C9.7344 8.80044 11.3792 7.25812 13.2992 7.25812H18.6816C20.6016 7.25812 22.2464 8.79404 22.5792 10.9059L24.0064 19.8655H24.416C25.1456 19.8655 25.7472 20.3838 25.888 21.0686C25.9072 21.1646 25.92 21.267 25.92 21.3694V24.4092H25.9264Z" fill="white"/>
<path d="M16.0005 15.5521C16.2565 15.5521 16.4933 15.4497 16.6725 15.2705C16.8517 15.0913 16.9541 14.8481 16.9541 14.5921V9.99718C16.9541 9.74119 16.8517 9.49801 16.6725 9.31882C16.4933 9.13963 16.2501 9.03723 16.0005 9.03723C15.7509 9.03723 15.5077 9.13963 15.3285 9.31882C15.1493 9.49801 15.0469 9.74119 15.0469 9.99718V14.5921C15.0469 14.8481 15.1493 15.0913 15.3285 15.2705C15.5077 15.4497 15.7509 15.5521 16.0005 15.5521Z" fill="white"/>
<path d="M16.0005 18.4254C16.2565 18.4254 16.4933 18.323 16.6725 18.1438C16.8517 17.9646 16.9541 17.7214 16.9541 17.4654C16.9541 17.2095 16.8517 16.9663 16.6725 16.7871C16.4933 16.6079 16.2501 16.5055 16.0005 16.5055C15.7509 16.5055 15.5077 16.6079 15.3285 16.7871C15.1493 16.9663 15.0469 17.2095 15.0469 17.4654C15.0469 17.7214 15.1493 17.9646 15.3285 18.1438C15.5077 18.323 15.7509 18.4254 16.0005 18.4254Z" fill="white"/>
<path d="M25.895 21.0685C25.7542 20.3837 25.1462 19.8654 24.423 19.8654H7.57822C6.74622 19.8654 6.07422 20.5373 6.07422 21.3693V24.4091H25.9334V21.3693C25.9334 21.2669 25.9206 21.1645 25.9014 21.0685H25.895Z" fill="#272447"/>
</svg>
