<svg width="24" height="25" viewBox="0 0 24 25" fill="none" xmlns="http://www.w3.org/2000/svg">
<path fill-rule="evenodd" clip-rule="evenodd" d="M12 21.8856C17.3019 21.8856 21.6 17.5876 21.6 12.2856C21.6 6.98371 17.3019 2.68564 12 2.68564C6.69807 2.68564 2.4 6.98371 2.4 12.2856C2.4 17.5876 6.69807 21.8856 12 21.8856ZM12 24.2856C18.6274 24.2856 24 18.9131 24 12.2856C24 5.65823 18.6274 0.285645 12 0.285645C5.37258 0.285645 0 5.65823 0 12.2856C0 18.9131 5.37258 24.2856 12 24.2856Z" fill="white"/>
<path d="M19.3965 9.67035H18.2923L18.3002 9.64998L18.1816 9.42705C17.8153 8.7426 16.5425 6.47227 15.5319 6.05034L15.412 6H8.58796L8.4681 6.05034C7.45616 6.47227 6.182 8.7426 5.81702 9.42705L5.69844 9.64998L5.70764 9.67035H4.60477C4.27009 9.67035 4 9.88492 4 10.1486V10.6569C4 10.9182 4.27009 11.134 4.60477 11.134H4.95528C4.91839 11.2958 4.89468 11.4624 4.89468 11.6362V13.9125C4.89468 14.5958 5.19374 15.1975 5.65096 15.5691V17.451C5.65096 17.7543 5.9198 18 6.2558 18H7.61557C7.94893 18 8.22034 17.7543 8.22034 17.451V15.9599H15.7796V17.451C15.7796 17.7543 16.051 18 16.3831 18H17.7455C18.0802 18 18.349 17.7543 18.349 17.451V15.5691C18.8075 15.1975 19.1053 14.5958 19.1053 13.9125V11.6362C19.1053 11.4624 19.0816 11.2958 19.046 11.134H19.3965C19.7299 11.134 20 10.9182 20 10.6581V10.1486C20 9.88492 19.7299 9.67035 19.3965 9.67035V9.67035ZM8.88179 7.10038H15.1169C15.5306 7.38327 16.3119 8.51363 16.918 9.58765H7.08324C7.68803 8.51363 8.46937 7.38327 8.88179 7.10038V7.10038Z" fill="#FEFEFE"/>
</svg>
