<svg width="72" height="64" viewBox="0 0 72 64" fill="none" xmlns="http://www.w3.org/2000/svg">
<path d="M69.6667 3H3V53H38L54.6667 61.3333V53H69.6667V3Z" stroke="white" stroke-width="4.47188" stroke-linecap="round" stroke-linejoin="round"/>
<path d="M36.0677 37C36.9518 37 37.7996 37.3512 38.4247 37.9763C39.0498 38.6014 39.401 39.4493 39.401 40.3333C39.401 41.2174 39.0498 42.0652 38.4247 42.6904C37.7996 43.3155 36.9518 43.6667 36.0677 43.6667C35.1837 43.6667 34.3358 43.3155 33.7107 42.6904C33.0856 42.0652 32.7344 41.2174 32.7344 40.3333C32.7344 39.4493 33.0856 38.6014 33.7107 37.9763C34.3358 37.3512 35.1837 37 36.0677 37ZM36.0677 11C36.9518 11 37.7996 11.3512 38.4247 11.9763C39.0498 12.6014 39.401 13.4493 39.401 14.3333V30.3333C39.401 31.2174 39.0498 32.0652 38.4247 32.6904C37.7996 33.3155 36.9518 33.6667 36.0677 33.6667C35.1837 33.6667 34.3358 33.3155 33.7107 32.6904C33.0856 32.0652 32.7344 31.2174 32.7344 30.3333V14.3333C32.7344 13.4493 33.0856 12.6014 33.7107 11.9763C34.3358 11.3512 35.1837 11 36.0677 11Z" fill="white"/>
</svg>
