<?xml version="1.0" encoding="UTF-8"?>
<svg id="Layer_1" xmlns="http://www.w3.org/2000/svg" version="1.1" viewBox="0 0 72 64">
  <!-- Generator: Adobe Illustrator 29.5.1, SVG Export Plug-In . SVG Version: 2.1.0 Build 141)  -->
  <defs>
    <style>
      .st0 {
        fill: none;
        stroke: #eb1b23;
        stroke-linecap: round;
        stroke-linejoin: round;
        stroke-width: 4.47px;
      }

      .st1 {
        fill: #eb1b23;
      }
    </style>
  </defs>
  <path class="st0" d="M69.67,3H3v50h35l16.67,8.33v-8.33h15V3Z"/>
  <path class="st1" d="M36.07,37c.88,0,1.73.35,2.36.98.63.63.98,1.47.98,2.36s-.35,1.73-.98,2.36c-.63.63-1.47.98-2.36.98s-1.73-.35-2.36-.98c-.63-.63-.98-1.47-.98-2.36s.35-1.73.98-2.36,1.47-.98,2.36-.98ZM36.07,11c.88,0,1.73.35,2.36.98.63.63.98,1.47.98,2.36v16c0,.88-.35,1.73-.98,2.36-.63.63-1.47.98-2.36.98s-1.73-.35-2.36-.98c-.63-.63-.98-1.47-.98-2.36V14.33c0-.88.35-1.73.98-2.36s1.47-.98,2.36-.98Z"/>
</svg>