<svg width="81" height="81" viewBox="0 0 81 81" fill="none" xmlns="http://www.w3.org/2000/svg">
<path d="M73.6667 10.5247H7V60.5247H42L58.6667 68.858V60.5247H73.6667V10.5247Z" stroke="white" stroke-width="4.47188" stroke-linecap="round" stroke-linejoin="round"/>
<path fill-rule="evenodd" clip-rule="evenodd" d="M19.5181 38.0031C18.8273 37.3143 18.8273 36.1975 19.5181 35.5087L24.5044 30.5197L19.5181 25.5357C18.8322 24.8469 18.8322 23.7301 19.5181 23.0413C20.2089 22.3525 21.3229 22.3525 22.0137 23.0413L27 28.0302L31.9863 23.0413C32.6771 22.3525 33.7911 22.3525 34.4819 23.0413C35.1727 23.7301 35.1727 24.8469 34.4819 25.5357L29.4956 30.5247L34.4819 35.5136C35.1727 36.2024 35.1727 37.3192 34.4819 38.0081C33.7911 38.6969 32.6771 38.6969 31.9863 38.0081L27 33.0191L22.0137 38.0081C21.3229 38.6969 20.2089 38.6969 19.5181 38.0081V38.0031Z" fill="white"/>
<path fill-rule="evenodd" clip-rule="evenodd" d="M46.5181 38.0031C45.8273 37.3143 45.8273 36.1975 46.5181 35.5087L51.5044 30.5197L46.5181 25.5357C45.8322 24.8469 45.8322 23.7301 46.5181 23.0413C47.2089 22.3525 48.3229 22.3525 49.0137 23.0413L54 28.0302L58.9863 23.0413C59.6771 22.3525 60.7911 22.3525 61.4819 23.0413C62.1727 23.7301 62.1727 24.8469 61.4819 25.5357L56.4956 30.5247L61.4819 35.5136C62.1727 36.2024 62.1727 37.3192 61.4819 38.0081C60.7911 38.6969 59.6771 38.6969 58.9863 38.0081L54 33.0191L49.0137 38.0081C48.3229 38.6969 47.2089 38.6969 46.5181 38.0081V38.0031Z" fill="white"/>
</svg>
