<svg width="24" height="24" viewBox="0 0 24 24" fill="none" xmlns="http://www.w3.org/2000/svg">
<path fill-rule="evenodd" clip-rule="evenodd" d="M12 21.6C17.3019 21.6 21.6 17.3019 21.6 12C21.6 6.69807 17.3019 2.4 12 2.4C6.69807 2.4 2.4 6.69807 2.4 12C2.4 17.3019 6.69807 21.6 12 21.6ZM12 24C18.6274 24 24 18.6274 24 12C24 5.37258 18.6274 0 12 0C5.37258 0 0 5.37258 0 12C0 18.6274 5.37258 24 12 24Z" fill="white"/>
<path d="M18.7253 7.50861C16.5363 6.83862 14.2009 6.83145 12.0062 7.48197C9.80865 6.83043 7.46657 6.83863 5.27471 7.51168C5.11312 7.56085 5 7.72169 5 7.90301V16.5923C5 16.748 5.08179 16.8883 5.2101 16.958C5.26333 16.9867 5.32132 17 5.37835 17C5.46009 17 5.54087 16.9713 5.60836 16.916C6.51134 16.1723 7.57876 15.7799 8.6937 15.7799C9.79153 15.7799 10.8428 16.161 11.7362 16.8832C11.7648 16.9119 11.7962 16.9375 11.8323 16.958C11.8855 16.9867 11.9425 17 11.9995 17C12.0813 17 12.1621 16.9713 12.2296 16.916C13.1335 16.1723 14.2009 15.7799 15.3159 15.7799C16.427 15.7799 17.4916 16.1692 18.3927 16.9088C18.5086 17.0021 18.6616 17.0184 18.7899 16.9488C18.9192 16.8801 19 16.7398 19 16.5841V7.89891C19 7.71758 18.8879 7.55675 18.7253 7.50861V7.50861ZM5.75665 15.8281V8.21444C7.67572 7.67866 9.70504 7.67764 11.6222 8.21137V15.8219C10.7297 15.2585 9.7307 14.9645 8.6937 14.9645C7.65385 14.9645 6.65107 15.2615 5.75665 15.8281ZM18.2444 15.8229C17.3519 15.2585 16.3519 14.9645 15.3159 14.9645C14.276 14.9645 13.2742 15.2615 12.3778 15.8281V8.21444C14.2979 7.67866 16.3272 7.67764 18.2444 8.21137V15.8229Z" fill="#FEFEFE"/>
</svg>
