<svg width="109" height="39" viewBox="0 0 109 39" fill="none" xmlns="http://www.w3.org/2000/svg">
<path d="M26.896 7.43391C26.896 7.43391 39.6775 1.6382 48.138 0.362707C56.5961 -0.919374 67.9743 1.43843 82.638 3.67329C96.5711 5.79399 108.774 6.67213 108.774 6.67213C108.774 6.67213 100.921 7.38342 90.2735 6.75775L64.113 3.32423C64.113 3.32423 49.1396 -0.4825 26.9008 7.43391H26.896Z" fill="white"/>
<path d="M0 17.2732C0 17.2732 9.33631 7.92981 29.2331 9.81342C56.93 12.4347 72.3751 6.67627 72.3751 6.67627C72.3751 6.67627 65.5187 16.0965 39.513 13.5016C15.092 11.067 8.50163 12.2459 0.00483872 17.2732H0Z" fill="white"/>
<path d="M2.1167 17.3391C2.1167 17.3391 4.38848 14.7881 13.6256 14.3359C13.6256 14.3359 11.8038 15.8002 10.6957 16.3754C9.58768 16.9571 8.18687 16.6498 5.94413 16.8276C3.69654 17.0054 2.11912 17.3325 2.11912 17.3325V17.3369L2.1167 17.3391Z" fill="white"/>
<path d="M92.9059 25.6552H89.543V28.8692H92.7825C93.4817 28.8692 93.9994 28.7287 94.3309 28.4762C94.6623 28.2238 94.8293 27.8088 94.8293 27.2534C94.8293 26.698 94.6696 26.327 94.3478 26.0526C94.026 25.7781 93.547 25.6486 92.9131 25.6486L92.9083 25.653L92.9059 25.6552Z" fill="white"/>
<path d="M0.307617 20.1011V38.3707H103.571V20.1011H0.307617ZM14.0351 35.699H12.3439L6.32214 23.5017H7.80037L13.198 34.6496L18.5956 23.5017H20.0738L14.0399 35.699H14.0351ZM23.1754 35.7056H21.823V23.5039H23.1754V35.7056ZM36.7553 24.6432H27.7673V28.911H36.0658V30.0636H27.7673V34.553H36.7553V35.699H26.427V23.5017H36.7553V24.6432ZM53.4827 35.699H51.7142L47.9763 24.8035L44.1803 35.699H42.4238L37.9819 23.5017H39.4166L43.3432 34.6167L47.1924 23.5017H48.8061L52.6021 34.6167L56.6182 23.5017H58.019L53.4755 35.699H53.4803H53.4827ZM70.0674 34.8209C68.9932 35.6331 67.6045 36.0371 65.8795 36.0371C63.9053 36.0371 62.3618 35.4773 61.2585 34.362C60.1601 33.238 59.6085 31.6596 59.6085 29.642C59.6085 27.6245 60.1722 25.9934 61.2924 24.9001C62.4126 23.7958 64.0263 23.247 66.1263 23.247C67.8344 23.247 69.1868 23.629 70.1836 24.3886C71.1682 25.1482 71.715 26.2129 71.8094 27.5916H69.0924C68.9787 26.8979 68.6715 26.3798 68.1682 26.0197C67.6698 25.6597 66.9827 25.4819 66.1287 25.4819C64.919 25.4819 63.9997 25.8375 63.3706 26.5422C62.7416 27.2535 62.4271 28.2919 62.4271 29.653C62.4271 31.0141 62.7416 31.9998 63.3634 32.7221C63.9924 33.4378 64.8827 33.7978 66.0392 33.7978C66.8763 33.7978 67.5586 33.5981 68.0908 33.2117C68.6255 32.8231 68.9739 32.2743 69.1239 31.5476H71.8239C71.7174 32.9263 71.1368 34.0174 70.0674 34.8362V34.8209ZM82.5199 35.699L81.6126 33.1963H76.4279L75.5449 35.699H72.6489L77.4174 23.5609H80.5916L85.4134 35.699H82.5175H82.5199ZM97.8175 35.7056H94.7981C94.6965 35.5344 94.6263 35.317 94.5731 35.0711C94.5199 34.8187 94.4909 34.5223 94.4788 34.1776L94.4497 32.9021C94.4207 32.1491 94.261 31.6376 93.9804 31.3676C93.7022 31.1041 93.1917 30.979 92.461 30.979H89.5433V35.71H86.7973V23.5675H93.2812C94.7401 23.5675 95.8263 23.8529 96.5255 24.4127C97.232 24.9769 97.5755 25.8507 97.5755 27.0076C97.5755 27.7497 97.4086 28.3687 97.0651 28.8693C96.7215 29.3588 96.228 29.6991 95.582 29.8813C96.1699 30.0701 96.5788 30.3555 96.8207 30.7309C97.0699 31.1195 97.2054 31.721 97.2489 32.5333L97.3022 33.9713V34.0196C97.3191 34.7462 97.4909 35.1875 97.8247 35.339V35.7166L97.8199 35.7056H97.8175Z" fill="white"/>
<path d="M77.1509 31.1569H80.8646L79.0089 25.9891L77.1533 31.1569H77.1509Z" fill="white"/>
</svg>
