<svg width="50" height="51" viewBox="0 0 50 51" fill="none" xmlns="http://www.w3.org/2000/svg">
<ellipse cx="25" cy="25" rx="25" ry="25" transform="matrix(-4.37114e-08 -1 -0.999948 0.0102108 49.999 50.2552)" fill="white"/>
<path d="M25.9502 13.2552C26.5023 13.2555 26.9502 13.7031 26.9502 14.2552V16.0404C28.3716 16.3102 29.6907 16.8679 30.8438 17.6527L32.1064 16.391C32.4969 16.0007 33.13 16.0007 33.5205 16.391L34.8643 17.7347C35.2542 18.1252 35.2544 18.7584 34.8643 19.1488L33.6025 20.4095C34.3878 21.563 34.9451 22.883 35.2148 24.3051H37C37.552 24.3054 38 24.753 38 25.3051V27.2045C38 27.7565 37.552 28.2041 37 28.2045H35.2148C34.9451 29.6261 34.3865 30.9448 33.6016 32.098L34.8643 33.3607C35.2545 33.7512 35.2545 34.3843 34.8643 34.7748L33.5215 36.1185C33.131 36.509 32.497 36.5088 32.1064 36.1185L30.8438 34.8558C29.6907 35.6407 28.3717 36.1984 26.9502 36.4681V38.2543C26.95 38.8062 26.5021 39.254 25.9502 39.2543H24.0508C23.4986 39.2543 23.051 38.8064 23.0508 38.2543V36.4681C21.6289 36.1984 20.3086 35.6419 19.1553 34.8568L17.8945 36.1185C17.5042 36.5088 16.871 36.5084 16.4805 36.1185L15.1367 34.7748C14.7463 34.3843 14.7463 33.7512 15.1367 33.3607L16.3984 32.098C15.6136 30.9449 15.0559 29.626 14.7861 28.2045H13.001C12.4487 28.2044 12.001 27.7567 12.001 27.2045V25.3051C12.001 24.7528 12.4487 24.3051 13.001 24.3051H14.7861C15.0559 22.8831 15.6123 21.5629 16.3975 20.4095L15.1367 19.1488C14.7464 18.7584 14.7466 18.1253 15.1367 17.7347L16.4805 16.391C16.871 16.0007 17.5041 16.0006 17.8945 16.391L19.1553 17.6517C20.3086 16.8667 21.6289 16.3101 23.0508 16.0404V14.2552C23.0508 13.703 23.4985 13.2552 24.0508 13.2552H25.9502ZM25 21.7045C22.4873 21.7045 20.4503 23.7416 20.4502 26.2543C20.4502 28.767 22.4872 30.8041 25 30.8041C27.5127 30.804 29.5498 28.767 29.5498 26.2543C29.5497 23.7417 27.5126 21.7046 25 21.7045Z" fill="#242424"/>
</svg>
