<svg width="68" height="80" viewBox="0 0 68 80" fill="none" xmlns="http://www.w3.org/2000/svg">
<path d="M6.46387 66.1287C6.46387 66.949 6.63086 67.7664 6.96484 68.5808C7.29883 69.3894 7.76172 70.1189 8.35352 70.7693C8.95117 71.4197 9.62207 71.9236 10.3662 72.281L9.55762 73.3533C8.70215 72.9373 7.94629 72.3279 7.29004 71.5251C6.63965 70.7166 6.15039 69.8054 5.82227 68.7917C5.48242 69.8757 4.9668 70.8484 4.27539 71.7097C3.58984 72.5652 2.80176 73.2068 1.91113 73.6345L1.12012 72.5623C1.87598 72.2107 2.55566 71.698 3.15918 71.0242C3.76855 70.3503 4.24609 69.5886 4.5918 68.739C4.94336 67.8835 5.12207 67.0134 5.12793 66.1287V64.8806H1.54199V63.7556H5.11035V61.3298H6.49902V63.7556H10.0146V64.8806H6.46387V66.1287ZM13.3545 67.447H15.9736V68.6248H13.3545V76.658H11.9834V61.031H13.3545V67.447ZM31.4072 64.6521H29.0342V66.7791H31.4072V67.9568H29.0342V70.5056H27.6631V61.0486H29.0342V63.4919H31.4072V64.6521ZM24.5693 66.2341H18.874V68.4138C20.3506 68.4138 21.6338 68.3787 22.7236 68.3083C23.8135 68.238 24.9385 68.1033 26.0986 67.9041L26.2393 69.0642C25.0498 69.2634 23.8926 69.3982 22.7676 69.4685C21.6426 69.5388 20.2979 69.574 18.7334 69.574H17.5205V65.1443H23.2158V63.158H17.4854V62.0154H24.5693V66.2341ZM24.0244 70.9626C25.0791 70.9626 25.9932 71.0769 26.7666 71.3054C27.54 71.5281 28.1348 71.8533 28.5508 72.281C28.9668 72.7087 29.1748 73.2185 29.1748 73.8103C29.1748 74.4021 28.9668 74.9089 28.5508 75.3308C28.1406 75.7527 27.5488 76.072 26.7754 76.2888C26.002 76.5115 25.085 76.6228 24.0244 76.6228C22.9463 76.6228 22.0176 76.5115 21.2383 76.2888C20.4648 76.072 19.8701 75.7527 19.4541 75.3308C19.0439 74.9089 18.8389 74.4021 18.8389 73.8103C18.8389 73.2185 19.0439 72.7087 19.4541 72.281C19.8701 71.8533 20.4678 71.5281 21.2471 71.3054C22.0264 71.0769 22.9521 70.9626 24.0244 70.9626ZM24.0244 72.0525C23.2334 72.0525 22.5479 72.1228 21.9678 72.2634C21.3877 72.4041 20.9453 72.6062 20.6406 72.8699C20.3359 73.1335 20.1865 73.447 20.1924 73.8103C20.1865 74.1677 20.3359 74.4783 20.6406 74.7419C20.9512 75.0056 21.3936 75.2048 21.9678 75.3396C22.5479 75.4802 23.2334 75.5505 24.0244 75.5505C24.8096 75.5505 25.4893 75.4802 26.0635 75.3396C26.6377 75.2048 27.0771 75.0085 27.3818 74.7507C27.6865 74.4871 27.8389 74.1736 27.8389 73.8103C27.8389 73.447 27.6865 73.1335 27.3818 72.8699C27.0771 72.6062 26.6377 72.4041 26.0635 72.2634C25.4893 72.1228 24.8096 72.0525 24.0244 72.0525ZM50.1631 69.8025H48.8447V61.0486H50.1631V69.8025ZM47.3154 69.6619H46.0146V66.2869H44.2568V65.1619H46.0146V61.3123H47.3154V69.6619ZM50.1631 73.9333H41.1982V75.4275H50.7607V76.4822H39.8271V72.9138H48.8096V71.5251H39.792V70.488H50.1631V73.9333ZM44.6436 63.6677H36.8037V62.5779H40.0381V60.9958H41.4092V62.5779H44.6436V63.6677ZM40.7236 64.3005C41.3564 64.3005 41.9189 64.4089 42.4111 64.6257C42.9033 64.8367 43.2871 65.1384 43.5625 65.531C43.8379 65.9177 43.9756 66.3689 43.9756 66.8845C43.9756 67.406 43.8379 67.863 43.5625 68.2556C43.2871 68.6423 42.9033 68.9412 42.4111 69.1521C41.9189 69.3572 41.3564 69.4568 40.7236 69.4509C40.085 69.4568 39.5195 69.3572 39.0273 69.1521C38.5352 68.9412 38.1514 68.6423 37.876 68.2556C37.6064 67.863 37.4717 67.406 37.4717 66.8845C37.4717 66.3689 37.6064 65.9177 37.876 65.531C38.1514 65.1384 38.5352 64.8367 39.0273 64.6257C39.5195 64.4089 40.085 64.3005 40.7236 64.3005ZM40.7236 65.3201C40.3252 65.3142 39.9707 65.3787 39.6602 65.5134C39.3496 65.6423 39.1094 65.8269 38.9395 66.0671C38.7695 66.3015 38.6846 66.574 38.6846 66.8845C38.6846 67.1951 38.7695 67.4705 38.9395 67.7107C39.1094 67.9509 39.3496 68.1384 39.6602 68.2732C39.9707 68.4021 40.3252 68.4666 40.7236 68.4666C41.1221 68.4666 41.4766 68.4021 41.7871 68.2732C42.0977 68.1384 42.3379 67.9509 42.5078 67.7107C42.6777 67.4705 42.7627 67.1951 42.7627 66.8845C42.7627 66.574 42.6777 66.3015 42.5078 66.0671C42.3379 65.8269 42.0977 65.6423 41.7871 65.5134C41.4766 65.3787 41.1221 65.3142 40.7236 65.3201ZM60.2354 63.3337C60.2354 64.1833 60.5195 65.0066 61.0879 65.8035C61.6621 66.5945 62.3975 67.2683 63.2939 67.825C64.1904 68.3757 65.0986 68.7361 66.0186 68.906L65.3857 70.0662C64.5889 69.8787 63.8037 69.574 63.0303 69.1521C62.2568 68.7302 61.5625 68.2087 60.9473 67.5876C60.332 66.9666 59.8604 66.2839 59.5322 65.5398C59.2041 66.2781 58.7324 66.9578 58.1172 67.5789C57.502 68.2 56.8076 68.7244 56.0342 69.1521C55.2666 69.574 54.4814 69.8787 53.6787 70.0662L53.0459 68.906C53.9658 68.7244 54.8711 68.3611 55.7617 67.8162C56.6523 67.2654 57.3789 66.5945 57.9414 65.8035C58.5098 65.0125 58.7939 64.1892 58.7939 63.3337V62.1384H60.2354V63.3337ZM66.7568 74.531H52.4482V73.3884H66.7568V74.531Z" fill="#ED1B23"/>
<ellipse cx="25" cy="25" rx="25" ry="25" transform="matrix(-4.37114e-08 -1 -0.999948 0.0102108 59.5 50.2341)" fill="#ED1B23"/>
<path fill-rule="evenodd" clip-rule="evenodd" d="M47.5 25.2341C47.5 32.4138 41.6797 38.2341 34.5 38.2341C27.3203 38.2341 21.5 32.4138 21.5 25.2341C21.5 18.0544 27.3203 12.2341 34.5 12.2341C41.6797 12.2341 47.5 18.0544 47.5 25.2341ZM32.8915 35.5105C32.035 33.4084 29.587 27.7131 28 27.1841C26.89 26.8141 25.3588 26.8654 24.2456 26.9782C24.9871 31.3696 28.481 34.8257 32.8915 35.5105ZM24.5283 22.2708C25.8042 17.9707 29.7858 14.8341 34.5 14.8341C39.2142 14.8341 43.1958 17.9707 44.4717 22.2708C42.4193 21.8862 38.7356 21.3341 34.5 21.3341C30.2644 21.3341 26.5807 21.8862 24.5283 22.2708ZM44.7544 26.9782C43.6412 26.8654 42.11 26.8141 41 27.1841C39.413 27.7131 36.965 33.4084 36.1085 35.5105C40.519 34.8257 44.0129 31.3696 44.7544 26.9782Z" fill="white"/>
</svg>
