<svg width="50" height="52" viewBox="0 0 50 52" fill="none" xmlns="http://www.w3.org/2000/svg">
<ellipse cx="25" cy="25" rx="25" ry="25" transform="matrix(-4.37114e-08 -1 -0.999948 0.0102108 49.999 50.7448)" fill="white"/>
<path d="M33.3646 21.2105L33.3646 28.0526C33.3646 28.8141 35.0914 30.847 36.6231 32.5003C37.4587 33.4023 36.8172 34.8947 35.5752 34.8947H14.4257C13.1838 34.8947 12.5423 33.4023 13.3779 32.5003C14.9096 30.847 16.6364 28.8141 16.6364 28.0526V21.2105C16.6364 21.2105 16.6364 13 25.0005 13C33.3646 13 33.3646 21.2105 33.3646 21.2105Z" fill="#242424"/>
<path d="M25.0005 39C22.2124 39 21.2831 37.1754 20.8184 36.2632H29.1826C28.7179 37.1754 27.7885 39 25.0005 39Z" fill="#242424"/>
</svg>
