<svg width="68" height="80" viewBox="0 0 68 80" fill="none" xmlns="http://www.w3.org/2000/svg">
<path d="M31.293 64.4448H33.6484V65.605H31.293V69.0151H29.9219V61.0522H31.293V64.4448ZM31.293 73.5679H22.7148V75.3608H31.873V76.4683H21.3613V72.5132H29.9219V70.8608H21.3262V69.7534H31.293V73.5679ZM23.4355 61.6323C24.2148 61.6382 24.9121 61.7876 25.5273 62.0806C26.1426 62.3735 26.623 62.7837 26.9688 63.311C27.3203 63.8325 27.4961 64.4272 27.4961 65.0952C27.4961 65.769 27.3203 66.3726 26.9688 66.9058C26.623 67.4331 26.1426 67.8433 25.5273 68.1362C24.9121 68.4292 24.2148 68.5757 23.4355 68.5757C22.6621 68.5757 21.9648 68.4292 21.3438 68.1362C20.7285 67.8374 20.2451 67.4243 19.8936 66.897C19.542 66.3696 19.3691 65.769 19.375 65.0952C19.3691 64.4272 19.542 63.8325 19.8936 63.311C20.2451 62.7837 20.7285 62.3735 21.3438 62.0806C21.9648 61.7876 22.6621 61.6382 23.4355 61.6323ZM23.4355 62.7925C22.9199 62.7866 22.4541 62.8833 22.0381 63.0825C21.6279 63.2759 21.3057 63.5483 21.0713 63.8999C20.8369 64.2515 20.7227 64.6499 20.7285 65.0952C20.7227 65.5464 20.8369 65.9507 21.0713 66.3081C21.3057 66.6655 21.6279 66.9468 22.0381 67.1519C22.4541 67.3511 22.9199 67.4507 23.4355 67.4507C23.9512 67.4507 24.4141 67.3511 24.8242 67.1519C25.2344 66.9468 25.5566 66.6655 25.791 66.3081C26.0254 65.9507 26.1426 65.5464 26.1426 65.0952C26.1426 64.6499 26.0254 64.2515 25.791 63.8999C25.5566 63.5483 25.2344 63.2759 24.8242 63.0825C24.4141 62.8833 23.9512 62.7866 23.4355 62.7925ZM47.5352 70.3335H46.1641V61.0698H47.5352V70.3335ZM42.5605 66.2554H36.7949V68.4175H37.4277C38.7402 68.4175 39.918 68.3823 40.9609 68.312C42.0098 68.2417 43.0938 68.1128 44.2129 67.9253L44.3711 69.0854C43.1289 69.2788 41.9307 69.4106 40.7764 69.481C39.6279 69.5454 38.2773 69.5776 36.7246 69.5776H35.459V65.1655H41.1895V63.1265H35.4238V62.019H42.5605V66.2554ZM47.5352 76.4683H37.375V71.1772H47.5352V76.4683ZM38.7285 75.3433H46.1816V72.3022H38.7285V75.3433Z" fill="#ED1B23"/>
<ellipse cx="25" cy="25" rx="25" ry="25" transform="matrix(-4.37114e-08 -1 -0.999948 0.0102108 59.5 50.2554)" fill="#ED1B23"/>
<path d="M42.8641 20.4659L42.8641 27.308C42.8641 28.0695 44.5909 30.1023 46.1226 31.7557C46.9582 32.6577 46.3167 34.1501 45.0747 34.1501H23.9253C22.6833 34.1501 22.0418 32.6577 22.8774 31.7557C24.4091 30.1023 26.1359 28.0695 26.1359 27.308V20.4659C26.1359 20.4659 26.1359 12.2554 34.5 12.2554C42.8641 12.2554 42.8641 20.4659 42.8641 20.4659Z" fill="white"/>
<path d="M34.5 38.2554C31.712 38.2554 30.7826 36.4308 30.3179 35.5185H38.6821C38.2174 36.4308 37.288 38.2554 34.5 38.2554Z" fill="white"/>
</svg>
