<?xml version="1.0" encoding="UTF-8"?>
<svg id="Layer_1" xmlns="http://www.w3.org/2000/svg" version="1.1" viewBox="0 0 50 51">
  <!-- Generator: Adobe Illustrator 29.5.1, SVG Export Plug-In . SVG Version: 2.1.0 Build 141)  -->
  <defs>
    <style>
      .st0 {
        fill: #fff;
      }

      .st1 {
        fill: #242424;
        fill-rule: evenodd;
      }
    </style>
  </defs>
  <path class="st0" d="M50,25.24C50,11.43,38.81.35,25,.5S0,11.95,0,25.76s11.19,24.89,25,24.74c13.81-.14,25-11.45,25-25.26Z"/>
  <path class="st1" d="M38,25.24c0,7.18-5.82,13-13,13s-13-5.82-13-13,5.82-13,13-13,13,5.82,13,13ZM23.39,35.52c-.86-2.1-3.3-7.8-4.89-8.33-1.11-.37-2.64-.32-3.75-.21.74,4.39,4.24,7.85,8.65,8.53h-.01ZM15.03,22.28c1.28-4.3,5.26-7.44,9.97-7.44s8.7,3.14,9.97,7.44c-2.05-.38-5.74-.94-9.97-.94s-7.92.55-9.97.94ZM35.25,26.99c-1.11-.11-2.64-.16-3.75.21-1.59.53-4.03,6.22-4.89,8.33,4.41-.68,7.9-4.14,8.65-8.53h-.01Z"/>
</svg>