<svg width="68" height="80" viewBox="0 0 68 80" fill="none" xmlns="http://www.w3.org/2000/svg">
<path d="M32.0312 69.6484H30.6426V65.5879H27.1621V64.4453H30.6426V61.5625H32.0312V69.6484ZM32.0312 74.166H23.2949V75.8711H32.6113V76.9785H21.9414V73.1113H30.6602V71.5469H21.9062V70.4395H32.0312V74.166ZM24.4023 63.5488C24.3965 64.2227 24.5576 64.8701 24.8857 65.4912C25.2139 66.1123 25.6738 66.6602 26.2656 67.1348C26.8574 67.6094 27.5312 67.9727 28.2871 68.2246L27.5488 69.2969C26.6816 68.9863 25.917 68.5352 25.2549 67.9434C24.5928 67.3516 24.0889 66.6631 23.7432 65.8779C23.415 66.7627 22.9111 67.5361 22.2314 68.1982C21.5518 68.8545 20.7461 69.3496 19.8145 69.6836L19.0586 68.5762C19.8379 68.3184 20.5264 67.9404 21.124 67.4424C21.7275 66.9385 22.1963 66.3525 22.5303 65.6846C22.8701 65.0107 23.043 64.2988 23.0488 63.5488V62.0723H24.4023V63.5488ZM47.5879 70.8789H46.1992V66.7832H43.0527V65.6406H46.1992V61.5625H47.5879V70.8789ZM42.4023 71.3711C43.4863 71.3711 44.4209 71.4854 45.2061 71.7139C45.9912 71.9424 46.5918 72.2734 47.0078 72.707C47.4297 73.1406 47.6406 73.6621 47.6406 74.2715C47.6406 74.8809 47.4297 75.4023 47.0078 75.8359C46.5918 76.2754 45.9912 76.6094 45.2061 76.8379C44.4209 77.0664 43.4863 77.1836 42.4023 77.1895C41.3184 77.1836 40.3838 77.0664 39.5986 76.8379C38.8135 76.6094 38.21 76.2754 37.7881 75.8359C37.3721 75.4023 37.1641 74.8809 37.1641 74.2715C37.1641 73.6621 37.3721 73.1406 37.7881 72.707C38.21 72.2734 38.8135 71.9424 39.5986 71.7139C40.3838 71.4854 41.3184 71.3711 42.4023 71.3711ZM42.4023 72.4434C41.6113 72.4434 40.9229 72.5166 40.3369 72.6631C39.751 72.8096 39.3027 73.0205 38.9922 73.2959C38.6816 73.5713 38.5293 73.8965 38.5352 74.2715C38.5293 74.6406 38.6816 74.9629 38.9922 75.2383C39.3027 75.5078 39.751 75.7158 40.3369 75.8623C40.9229 76.0088 41.6113 76.082 42.4023 76.082C43.1934 76.082 43.8789 76.0088 44.459 75.8623C45.0449 75.7158 45.4932 75.5078 45.8037 75.2383C46.1143 74.9629 46.2695 74.6406 46.2695 74.2715C46.2695 73.8965 46.1143 73.5713 45.8037 73.2959C45.4932 73.0205 45.0449 72.8096 44.459 72.6631C43.8789 72.5166 43.1934 72.4434 42.4023 72.4434ZM40.0645 64.4277C40.0645 65.1016 40.2256 65.7549 40.5479 66.3877C40.8701 67.0146 41.3213 67.5742 41.9014 68.0664C42.4873 68.5527 43.1582 68.9277 43.9141 69.1914L43.1934 70.2988C42.3203 69.9824 41.5527 69.5137 40.8906 68.8926C40.2344 68.2715 39.7393 67.5537 39.4053 66.7393C39.0654 67.6533 38.5469 68.4619 37.8496 69.165C37.1582 69.8623 36.3496 70.3867 35.4238 70.7383L34.7031 69.6309C35.4707 69.3496 36.1562 68.9453 36.7598 68.418C37.3633 67.8848 37.832 67.2725 38.166 66.5811C38.5059 65.8896 38.6758 65.1777 38.6758 64.4453V63.8652H35.1426V62.7051H43.5625V63.8652H40.0645V64.4277Z" fill="#ED1B23"/>
<ellipse cx="25" cy="25" rx="25" ry="25" transform="matrix(-4.37114e-08 -1 -0.999948 0.0102108 59.5 50.7656)" fill="#ED1B23"/>
<path d="M35.4492 12.7656C36.0013 12.7659 36.4492 13.2135 36.4492 13.7656V15.5508C37.8707 15.8205 39.1897 16.3783 40.3428 17.1631L41.6055 15.9014C41.996 15.5111 42.6291 15.511 43.0195 15.9014L44.3633 17.2451C44.7532 17.6356 44.7534 18.2688 44.3633 18.6592L43.1016 19.9199C43.8868 21.0734 44.4441 22.3934 44.7139 23.8154H46.499C47.051 23.8158 47.499 24.2633 47.499 24.8154V26.7148C47.499 27.2669 47.051 27.7145 46.499 27.7148H44.7139C44.4441 29.1365 43.8855 30.4552 43.1006 31.6084L44.3633 32.8711C44.7535 33.2616 44.7535 33.8947 44.3633 34.2852L43.0205 35.6289C42.6301 36.0193 41.996 36.0192 41.6055 35.6289L40.3428 34.3662C39.1897 35.1511 37.8707 35.7087 36.4492 35.9785V37.7646C36.449 38.3166 36.0012 38.7644 35.4492 38.7646H33.5498C32.9977 38.7646 32.55 38.3167 32.5498 37.7646V35.9785C31.1279 35.7088 29.8076 35.1523 28.6543 34.3672L27.3936 35.6289C27.0032 36.0191 26.37 36.0188 25.9795 35.6289L24.6357 34.2852C24.2453 33.8947 24.2453 33.2616 24.6357 32.8711L25.8975 31.6084C25.1126 30.4553 24.5549 29.1364 24.2852 27.7148H22.5C21.9477 27.7148 21.5 27.2671 21.5 26.7148V24.8154C21.5 24.2632 21.9477 23.8155 22.5 23.8154H24.2852C24.5549 22.3935 25.1113 21.0733 25.8965 19.9199L24.6357 18.6592C24.2454 18.2688 24.2456 17.6356 24.6357 17.2451L25.9795 15.9014C26.37 15.5111 27.0031 15.511 27.3936 15.9014L28.6543 17.1621C29.8076 16.377 31.1279 15.8205 32.5498 15.5508V13.7656C32.5498 13.2133 32.9975 12.7656 33.5498 12.7656H35.4492ZM34.499 21.2148C31.9863 21.2148 29.9493 23.252 29.9492 25.7646C29.9492 28.2774 31.9862 30.3145 34.499 30.3145C37.0117 30.3143 39.0488 28.2773 39.0488 25.7646C39.0487 23.252 37.0116 21.215 34.499 21.2148Z" fill="white"/>
</svg>
