<svg width="68" height="80" viewBox="0 0 68 80" fill="none" xmlns="http://www.w3.org/2000/svg">
<path d="M13.1963 66.8501H16.5889V63.0356H17.8721V73.2661H11.8779V63.0356H13.1963V66.8501ZM16.5889 72.1235V67.9751H13.1963V72.1235H16.5889ZM24.6924 77.1685H23.3564V68.8892H21.1768V76.3774H19.8584V61.8755H21.1768V67.7466H23.3564V61.5415H24.6924V77.1685ZM39.8096 77.2036H38.4385V68.5903H35.1338V67.4478H38.4385V61.5415H39.8096V77.2036ZM34.8701 64.1255H28.9639V67.3774H34.1846V68.5024H28.9639V72.2817C30.458 72.2817 31.7119 72.2495 32.7256 72.1851C33.7451 72.1147 34.7764 71.9888 35.8193 71.8071L35.9775 72.9497C34.8701 73.1313 33.7803 73.2573 32.708 73.3276C31.6357 73.3921 30.3232 73.4243 28.7705 73.4243H27.5752V62.9829H34.8701V64.1255ZM55.3135 77.2036H53.9424V61.5415H55.3135V77.2036ZM50.5674 68.5552H44.7314V72.2466C46.1318 72.2466 47.4326 72.2056 48.6338 72.1235C49.8408 72.0415 51.1064 71.895 52.4307 71.6841L52.5713 72.8442C51.2178 73.061 49.9229 73.2104 48.6865 73.2925C47.4502 73.3687 46.0967 73.4067 44.626 73.4067H43.3252V67.4302H49.1787V64.1431H43.29V63.0005H50.5674V68.5552Z" fill="#ED1B23"/>
<ellipse cx="25" cy="25" rx="25" ry="25" transform="matrix(-4.37114e-08 -1 -0.999948 0.0102108 59.5 50.7446)" fill="#ED1B23"/>
<path d="M32.9002 28.9446H23.3014C22.6422 28.9446 22.2659 28.192 22.6614 27.6646L36.0998 9.74463V22.5446H45.6986C46.3578 22.5446 46.7341 23.2972 46.3386 23.8246L32.9002 41.7446V28.9446Z" fill="white"/>
</svg>
