<svg width="32" height="32" viewBox="0 0 32 32" fill="none" xmlns="http://www.w3.org/2000/svg">
<path d="M30.1248 8.33793C28.6016 5.49062 26.2272 3.17439 23.3472 1.71554C21.1456 0.595816 18.6496 -0.0248324 16 0.000761357C13.4656 0.0263551 11.072 0.640606 8.9408 1.71554C5.9264 3.23197 3.4496 5.65698 1.8752 8.63226C0.6784 10.8845 0 13.4503 0 16.1632C0 18.8762 0.6784 21.4291 1.8752 23.6558C3.2896 26.2984 5.44 28.4866 8.0448 29.9583C10.3872 31.2827 13.1008 32.025 16 31.9994C18.784 31.9738 21.3952 31.2316 23.68 29.9583C26.4128 28.4354 28.6592 26.1384 30.1248 23.3743C31.3216 21.122 32 18.5562 32 15.8369C32 13.1176 31.3216 10.571 30.1248 8.33793ZM25.2608 21.1732C25.1648 21.9474 24.7616 22.6448 24.1408 23.1119C23.7632 23.3999 23.2448 23.5406 22.5024 23.6174C21.7216 23.6942 20.6848 23.7006 19.2896 23.7006H12.704C11.2 23.7006 10.1248 23.7006 9.3248 23.5982C8.6784 23.515 8.1984 23.3743 7.8528 23.1119C7.232 22.6448 6.8288 21.941 6.7328 21.1732C6.688 20.8021 6.7584 20.3926 6.944 19.9063C7.2384 19.1257 7.8144 18.1275 8.6464 16.6815L11.936 10.9805C13.2352 8.73463 13.9136 7.57012 14.752 7.14142C14.7904 7.12223 14.8288 7.09663 14.8672 7.07744C15.584 6.77671 16.3904 6.77671 17.1072 7.07744C17.1264 7.08384 17.1392 7.09663 17.1584 7.10303C18.0288 7.50613 18.7072 8.67705 20.0384 10.9805L23.328 16.6815C24.1344 18.0828 24.6976 19.0553 24.9984 19.8295C25.2032 20.3542 25.2928 20.7829 25.2416 21.1796L25.2608 21.1732Z" fill="#FFCA28"/>
<path d="M15.9993 18.8955C15.7626 18.8955 15.5322 18.9915 15.3659 19.1578C15.1995 19.3242 15.1035 19.5545 15.1035 19.7977C15.1035 20.0408 15.1995 20.2648 15.3659 20.4375C15.5322 20.6039 15.7626 20.6999 15.9993 20.6999C16.236 20.6999 16.4664 20.6039 16.6327 20.4375C16.7991 20.2712 16.8951 20.0408 16.8951 19.7977C16.8951 19.5545 16.7991 19.3306 16.6327 19.1578C16.4664 18.9915 16.236 18.8955 15.9993 18.8955Z" fill="#FFCA28"/>
<path d="M15.9993 11.8635C15.7626 11.8635 15.5322 11.9595 15.3659 12.1259C15.1995 12.2922 15.1035 12.5226 15.1035 12.7657V17.0911C15.1035 17.3278 15.1995 17.5581 15.3659 17.7309C15.5322 17.8973 15.7626 17.9932 15.9993 17.9932C16.236 17.9932 16.4664 17.8973 16.6327 17.7309C16.7991 17.5645 16.8951 17.3342 16.8951 17.0911V12.7657C16.8951 12.529 16.7991 12.2986 16.6327 12.1259C16.4664 11.9595 16.236 11.8635 15.9993 11.8635Z" fill="#FFCA28"/>
</svg>
