<svg width="72" height="64" viewBox="0 0 72 64" fill="none" xmlns="http://www.w3.org/2000/svg">
<path d="M69.1667 3H2.5V53H37.5L54.1667 61.3333V53H69.1667V3Z" stroke="white" stroke-width="4.47188" stroke-linecap="round" stroke-linejoin="round"/>
<path d="M42.2655 13C44.0469 13 45.7073 13.5154 47.1092 14.4023L43.6668 17.8457C42.8858 18.6267 42.8859 19.8928 43.6668 20.6738C44.4479 21.4547 45.714 21.4549 46.4949 20.6738L49.9373 17.2305C50.8246 18.6326 51.3406 20.2932 51.3406 22.0752C51.3406 27.0872 47.2771 31.1503 42.2655 31.1504C40.6793 31.1503 39.1888 30.7417 37.8914 30.0264L24.9364 42.9824C24.1553 43.7633 22.8892 43.7633 22.1082 42.9824L21.0867 41.9609C20.3057 41.1799 20.3057 39.9129 21.0867 39.1318L34.1268 26.0908C33.5284 24.8801 33.1912 23.5171 33.1912 22.0752C33.1912 17.0633 37.2539 13.0002 42.2655 13Z" fill="white"/>
</svg>
