<svg width="24" height="24" viewBox="0 0 24 24" fill="none" xmlns="http://www.w3.org/2000/svg">
<path d="M14.9807 9.02206C13.9046 7.94597 12.4759 7.35303 10.9529 7.35303C9.43118 7.35303 7.99993 7.94597 6.92517 9.02206C4.70203 11.2427 4.70203 14.8572 6.92517 17.0778C7.99993 18.1552 9.43118 18.7469 10.9529 18.7469C12.4759 18.7469 13.9046 18.1552 14.9807 17.0778C17.2025 14.8572 17.2025 11.2427 14.9807 9.02206ZM8.98943 11.0851C8.83441 11.2427 8.62511 11.3305 8.40163 11.3305C8.17686 11.3305 7.96891 11.2427 7.81131 11.0851C7.65242 10.9301 7.56456 10.7182 7.56456 10.4973C7.56456 10.2738 7.65242 10.0646 7.81131 9.90695C8.12392 9.59046 8.67682 9.59046 8.98943 9.90695C9.31495 10.2325 9.31495 10.7608 8.98943 11.0851ZM7.81131 15.0109C8.12392 14.697 8.67682 14.697 8.98943 15.0109C9.31495 15.3391 9.31495 15.8674 8.98943 16.1929C8.83441 16.3493 8.62511 16.4371 8.40163 16.4371C8.17686 16.4371 7.96891 16.3493 7.81131 16.1929C7.65242 16.0366 7.56456 15.8235 7.56456 15.6026C7.56456 15.3791 7.65242 15.1711 7.81131 15.0109ZM8.91967 13.0487C8.91967 12.5061 9.13147 11.9958 9.51642 11.6122C9.90137 11.2285 10.4091 11.0166 10.9529 11.0166C11.4941 11.0166 12.0057 11.2285 12.3894 11.6122C12.7717 11.9958 12.9836 12.5061 12.9836 13.0487C12.9836 13.5912 12.7717 14.1028 12.3894 14.4852C12.0057 14.8688 11.4941 15.0807 10.9529 15.0807C10.4091 15.0807 9.90137 14.8688 9.51642 14.4852C9.13147 14.1028 8.91967 13.5912 8.91967 13.0487ZM12.671 10.4973C12.671 10.2738 12.7575 10.0646 12.9151 9.90695C13.2303 9.59046 13.7819 9.59046 14.0971 9.90695C14.2521 10.0646 14.34 10.2738 14.34 10.4973C14.34 10.7208 14.2521 10.9301 14.0971 11.0851C13.9382 11.2427 13.7302 11.3305 13.5067 11.3305C13.2833 11.3305 13.074 11.2427 12.9151 11.0851C12.7575 10.9301 12.671 10.7208 12.671 10.4973ZM14.0971 16.1929C13.9382 16.3493 13.7302 16.4371 13.5067 16.4371C13.2833 16.4371 13.074 16.3493 12.9151 16.1929C12.7575 16.0366 12.671 15.8235 12.671 15.6026C12.671 15.3791 12.7575 15.1711 12.9151 15.0109C13.2303 14.697 13.7793 14.697 14.0971 15.0109C14.4214 15.3391 14.4214 15.8674 14.0971 16.1929Z" fill="#FEFEFE"/>
<path d="M20.9901 14.9038H18.2657C18.2632 14.918 18.2593 14.9348 18.2555 14.9503C18.2503 14.9684 18.2451 14.9826 18.2412 14.9994C18.2373 15.011 18.2348 15.0252 18.2296 15.0369C18.227 15.0459 18.227 15.0537 18.2206 15.0627C18.2128 15.1092 18.2012 15.1544 18.1857 15.1996C18.1831 15.2113 18.1805 15.2216 18.1753 15.2345C18.1715 15.2371 18.1714 15.2371 18.1714 15.241C18.1689 15.2461 18.1689 15.2526 18.165 15.2578C18.1443 15.3275 18.1224 15.3973 18.0992 15.467C18.0927 15.4838 18.0875 15.4993 18.0849 15.5161C18.0797 15.5239 18.0759 15.5342 18.0733 15.542V15.5446C18.0552 15.5898 18.041 15.635 18.0242 15.6789C18.0061 15.7344 17.9854 15.7835 17.9635 15.8391C17.9596 15.8404 17.9596 15.8468 17.9596 15.8494V15.8533C17.9596 15.8559 17.957 15.8559 17.957 15.8585C17.9467 15.8817 17.9389 15.9076 17.9286 15.9321C17.9286 15.9386 17.9247 15.9398 17.9196 15.945C17.9041 15.9915 17.8834 16.0367 17.8614 16.0819C17.855 16.0936 17.8524 16.1065 17.8434 16.1168C17.8227 16.1724 17.7982 16.2279 17.771 16.2822C17.7413 16.3494 17.7077 16.4152 17.6728 16.4798C17.6405 16.5431 17.6057 16.6103 17.5708 16.6749C17.5088 16.7847 17.4455 16.8945 17.3757 17.0017C17.3615 17.034 17.3409 17.0624 17.3215 17.0922C17.3086 17.1102 17.297 17.1257 17.2892 17.1412C17.2685 17.1761 17.2478 17.2084 17.2259 17.2407C17.1936 17.2846 17.1626 17.3311 17.129 17.3738C17.107 17.4112 17.0799 17.45 17.0515 17.4874C16.9908 17.5766 16.9236 17.6644 16.8513 17.751C16.8164 17.7962 16.7815 17.8388 16.7428 17.8815C16.7053 17.9318 16.6613 17.9796 16.6187 18.0274C16.6097 18.0352 16.6007 18.0442 16.5955 18.0533C16.5955 18.0558 16.5929 18.0558 16.589 18.0597V18.0623C16.5877 18.0649 16.5877 18.0649 16.5877 18.0649C16.5774 18.0765 16.5696 18.0856 16.5567 18.0946C16.5451 18.1062 16.5348 18.1204 16.5218 18.1308C16.5167 18.1424 16.505 18.1553 16.4921 18.1669C16.4676 18.1889 16.4469 18.2134 16.4263 18.2367C16.4211 18.2419 16.416 18.247 16.4121 18.2535C16.4121 18.2535 16.4069 18.2561 16.4069 18.26C16.3979 18.2677 16.3927 18.2767 16.3824 18.2858V21.0322H15.513V19.0609C15.4743 19.0893 15.4368 19.119 15.3954 19.1448C15.367 19.1681 15.3386 19.1888 15.3089 19.2056C15.2844 19.2288 15.2546 19.2495 15.2262 19.2663C15.2017 19.2869 15.1758 19.3037 15.15 19.3192C15.1242 19.3386 15.097 19.3567 15.0686 19.3709C15.0608 19.38 15.0479 19.3851 15.0402 19.3916C14.9536 19.4497 14.8658 19.504 14.7779 19.5518C14.7379 19.5802 14.694 19.6034 14.6527 19.6267C14.601 19.659 14.5467 19.6874 14.4938 19.7132C14.455 19.7339 14.4215 19.7546 14.3827 19.7714C14.3633 19.7843 14.34 19.7946 14.3194 19.8037C14.2845 19.8205 14.2496 19.8386 14.2147 19.8515C14.1656 19.876 14.1166 19.8993 14.0649 19.9251C14.052 19.9316 14.0378 19.9367 14.0236 19.9432C14.0171 19.9484 14.0093 19.9522 14.0029 19.9548C13.9977 19.9574 13.9913 19.96 13.9861 19.96C13.9822 19.96 13.9796 19.96 13.9771 19.9626C13.9732 19.9626 13.9732 19.9664 13.9732 19.9664C13.9719 19.969 13.968 19.9716 13.9655 19.9716C13.8867 20.0065 13.8052 20.0388 13.7277 20.0698C13.6786 20.0905 13.6283 20.1085 13.5766 20.1266C13.5533 20.1344 13.5288 20.1434 13.5068 20.1486C13.4926 20.155 13.4745 20.1602 13.4616 20.1667C13.4552 20.1693 13.4461 20.1718 13.4397 20.1718C13.4203 20.1809 13.3984 20.1873 13.379 20.1964C13.3415 20.2067 13.3027 20.2209 13.2627 20.2339C13.233 20.2455 13.2046 20.2532 13.1761 20.2623C13.1232 20.2804 13.069 20.2946 13.016 20.3088C12.8506 20.354 12.6827 20.3953 12.5109 20.4341C12.4902 20.4367 12.4683 20.4418 12.4476 20.4457C12.4412 20.4483 12.4334 20.4483 12.4243 20.4509C12.3688 20.4625 12.3107 20.4741 12.2525 20.4832H12.2448C12.2306 20.4858 12.2151 20.4896 12.1983 20.4909C12.1892 20.4935 12.1776 20.4935 12.1647 20.4974C12.1311 20.5038 12.0962 20.509 12.0588 20.5155C12.0381 20.5181 12.0149 20.5206 11.9955 20.5232C11.9077 20.5361 11.8172 20.5478 11.7294 20.5542H11.7216C11.6118 20.5671 11.5007 20.5762 11.3883 20.5826C11.3741 20.5826 11.3561 20.5852 11.3393 20.5852C11.2747 20.5878 11.2075 20.5878 11.1442 20.5891L9.14967 22.585L8.53223 21.9688L9.97381 20.5284C9.77617 20.5038 9.57981 20.4703 9.38475 20.4302C9.2827 20.407 9.18196 20.3824 9.07991 20.3579C8.96624 20.332 8.85387 20.2997 8.74019 20.2623C8.67302 20.2455 8.60457 20.2209 8.5374 20.199C8.4909 20.1848 8.44051 20.1667 8.39529 20.1486C8.34879 20.1344 8.2984 20.115 8.25319 20.0969C8.20022 20.0762 8.15111 20.0556 8.09815 20.0336C8.05294 20.0155 8.00258 19.9962 7.95736 19.9755C7.8579 19.9341 7.76231 19.8902 7.66671 19.8411C7.63829 19.8295 7.61118 19.8153 7.58276 19.8011C7.53884 19.7804 7.49748 19.761 7.45743 19.7365C7.43805 19.7249 7.4148 19.7133 7.39026 19.699C7.3838 19.6965 7.37864 19.6926 7.37348 19.6874C7.36831 19.6848 7.36442 19.6848 7.35796 19.6822C7.35796 19.6784 7.3567 19.6784 7.3567 19.6784C7.34766 19.6719 7.33862 19.6706 7.32958 19.6642C7.30116 19.6525 7.27534 19.6383 7.24821 19.6202C7.19912 19.597 7.15002 19.5686 7.10352 19.5389C7.03376 19.4988 6.96399 19.4549 6.89682 19.4148C6.83094 19.3709 6.76379 19.3283 6.69662 19.2818C6.61265 19.2236 6.52995 19.1629 6.4447 19.0983C6.40336 19.0686 6.36591 19.0402 6.32586 19.0079C6.24577 18.9446 6.16823 18.8839 6.0933 18.8193C6.0933 18.8167 6.08945 18.8167 6.08687 18.8141C6.07266 18.8012 6.05844 18.7909 6.04423 18.7741C6.03519 18.7663 6.02877 18.7638 6.02361 18.756C6.02102 18.7534 6.01452 18.747 6.01194 18.747C6.00031 18.7379 5.99001 18.7289 5.98097 18.7211C5.90475 18.654 5.82851 18.5868 5.75617 18.5183H2.93494V17.6463H4.97076C4.91133 17.5714 4.8532 17.4939 4.80152 17.4177C4.74598 17.3389 4.69176 17.2614 4.64138 17.1826C4.60133 17.1257 4.56388 17.0624 4.52513 17.0017C4.45279 16.8842 4.38299 16.764 4.31969 16.6452C4.28482 16.5845 4.25252 16.5212 4.22281 16.4592C4.20343 16.4191 4.18409 16.3778 4.16213 16.3377C4.08463 16.184 4.01489 16.0277 3.95417 15.8675C3.88958 15.7047 3.82886 15.542 3.77718 15.3766C3.77331 15.3676 3.77069 15.3624 3.7681 15.3534C3.75002 15.3004 3.73582 15.2487 3.72162 15.1971C3.70741 15.1415 3.68934 15.0885 3.67513 15.0343C3.66092 14.9787 3.6467 14.9271 3.63249 14.8715C3.61053 14.7863 3.59116 14.701 3.57307 14.6132C3.56791 14.5964 3.56534 14.5757 3.56147 14.5524C3.5563 14.5318 3.55367 14.5111 3.5498 14.4917C3.53817 14.4439 3.53046 14.3987 3.52141 14.3548C3.52141 14.3496 3.52141 14.3432 3.51883 14.3406C3.50333 14.2566 3.4917 14.1739 3.48136 14.0913C3.46844 13.9995 3.45682 13.9143 3.44907 13.8238C3.44907 13.8238 3.44907 13.8213 3.44648 13.8187C3.43615 13.7076 3.42837 13.5978 3.42321 13.4867C3.41933 13.4699 3.41932 13.4518 3.41545 13.435C3.41416 13.3795 3.41419 13.3213 3.41419 13.2658L1.39124 11.2454L2.00875 10.6305L3.46843 12.0915C3.49556 11.8913 3.53044 11.6936 3.57049 11.4947C3.85855 10.1176 4.52512 8.84777 5.52109 7.8156V5.06532H6.39171V7.03663C7.24299 6.39201 8.21055 5.93988 9.24397 5.70218V2.22461C6.96656 2.57986 4.86484 3.64044 3.2049 5.30043C-1.0683 9.57377 -1.0683 16.5263 3.2049 20.7997C5.27563 22.8692 8.02711 24.0073 10.953 24.0073C13.8815 24.0073 16.633 22.8692 18.7024 20.7997C20.3662 19.1358 21.3777 17.0624 21.7458 14.9038H20.9901V14.9038Z" fill="#FEFEFE"/>
<path d="M23.9999 13.1003C24.0128 9.74161 22.7404 6.37771 20.184 3.81991C17.7503 1.38741 14.5312 0.0348791 11.0977 0V5.50702C11.179 5.50961 11.2566 5.50961 11.3392 5.51219C11.356 5.51607 11.3702 5.51607 11.3883 5.51865C11.5007 5.52511 11.6118 5.53028 11.7254 5.5419C11.7254 5.5419 11.7254 5.5419 11.728 5.5419C11.9192 5.56257 12.1078 5.59099 12.2951 5.62587C12.33 5.63104 12.3662 5.6375 12.401 5.64267C12.5638 5.67625 12.7253 5.71372 12.8854 5.75635C12.9462 5.77185 13.0069 5.78864 13.065 5.80673C13.2045 5.84677 13.3415 5.89069 13.4771 5.93978C13.5572 5.9682 13.6334 5.99663 13.7135 6.02634C13.8323 6.07284 13.9473 6.12322 14.0649 6.1749C14.154 6.21882 14.2444 6.25887 14.3348 6.30537C14.3917 6.33379 14.4511 6.36608 14.5079 6.39709C14.6449 6.47072 14.7805 6.54952 14.9148 6.62961C14.96 6.65933 15.004 6.68904 15.0505 6.72134C15.1874 6.80789 15.3244 6.89961 15.4535 6.99908C15.5039 7.03654 15.5556 7.07788 15.6059 7.11534C15.7235 7.21093 15.8398 7.30653 15.9547 7.406C16.009 7.45767 16.0671 7.50676 16.1226 7.55973C16.1769 7.6114 16.2363 7.66178 16.2867 7.71345C16.3306 7.75608 16.372 7.79742 16.4094 7.84134C16.4211 7.85038 16.4301 7.85814 16.4327 7.86718C16.4378 7.86976 16.4417 7.86976 16.4366 7.87234C16.4934 7.93048 16.5489 7.99507 16.6045 8.05578C16.6187 8.06999 16.6303 8.08291 16.6419 8.09712C16.6859 8.14621 16.7285 8.19401 16.7673 8.24439C16.8254 8.30769 16.8771 8.37228 16.921 8.43816C16.9636 8.48467 16.9985 8.53505 17.0321 8.58414C17.0476 8.60093 17.063 8.61902 17.0708 8.6384C17.1147 8.69136 17.1496 8.74303 17.1845 8.79858C17.191 8.80246 17.1935 8.80246 17.1909 8.80375C17.2103 8.82829 17.2258 8.85154 17.24 8.87738C17.2478 8.88642 17.2542 8.89417 17.2581 8.9058C17.2969 8.96781 17.3382 9.02594 17.3757 9.08924C17.3796 9.09182 17.3795 9.09182 17.3795 9.09441C17.4028 9.13316 17.4261 9.16804 17.448 9.2055C17.47 9.24296 17.4893 9.27785 17.5087 9.3166C17.5178 9.32693 17.5242 9.33856 17.5294 9.35019C17.541 9.37344 17.5565 9.39669 17.5669 9.41994C17.5824 9.4432 17.594 9.46645 17.603 9.48841C17.6288 9.52975 17.6521 9.57367 17.6728 9.61759C17.7219 9.70673 17.7658 9.79716 17.8033 9.89017L17.8059 9.89275C17.811 9.90179 17.8175 9.91084 17.8175 9.91988C17.8226 9.92375 17.8265 9.93409 17.8265 9.93925C17.8407 9.97155 17.8549 9.99997 17.8665 10.0323C17.8782 10.0542 17.8872 10.0736 17.8924 10.093C17.9079 10.124 17.9195 10.155 17.9299 10.1834C17.9363 10.1925 17.9389 10.2002 17.9427 10.2092C17.9466 10.2235 17.9531 10.239 17.9596 10.2545C17.9944 10.3397 18.0267 10.4276 18.059 10.5141C18.09 10.5955 18.1159 10.6769 18.1404 10.7583C18.1688 10.8397 18.1921 10.9236 18.214 11.0089C18.2528 11.129 18.2825 11.2479 18.3083 11.3745C18.3367 11.4985 18.3639 11.6238 18.3832 11.7478C18.4039 11.8537 18.4181 11.9571 18.4323 12.0643C18.4491 12.2129 18.4647 12.364 18.4763 12.5177C18.4853 12.6469 18.4904 12.78 18.4943 12.9091C18.4969 12.9557 18.4995 13.0022 18.4995 13.0487C18.4995 13.0655 18.4969 13.0823 18.4969 13.1003H23.9999V13.1003ZM21.1645 9.75065C21.6954 9.75065 22.1255 10.1808 22.1255 10.7105C22.1255 11.2427 21.6954 11.6729 21.1645 11.6729C20.6335 11.6729 20.2021 11.2427 20.2021 10.7105C20.2021 10.1808 20.6335 9.75065 21.1645 9.75065ZM13.3892 3.95038C12.857 3.95038 12.4256 3.51892 12.4256 2.98927C12.4256 2.45704 12.857 2.02686 13.3892 2.02686C13.9201 2.02686 14.3504 2.45704 14.3504 2.98927C14.3504 3.51892 13.9201 3.95038 13.3892 3.95038Z" fill="#FEFEFE"/>
</svg>
