<svg width="32" height="32" viewBox="0 0 32 32" fill="none" xmlns="http://www.w3.org/2000/svg">
<circle cx="16" cy="16" r="16" fill="#ED1B23"/>
<path d="M16.6006 5C18.2573 5.00011 19.6006 6.34321 19.6006 8V15.5059C19.6006 15.8172 19.7495 16.1067 19.9805 16.3154C21.2195 17.4351 22 19.0699 22 20.8896C21.9997 24.2646 19.3135 27 16 27C12.6865 27 10.0003 24.2646 10 20.8896C10 19.0697 10.7811 17.435 12.0205 16.3154C12.2515 16.1067 12.4004 15.8172 12.4004 15.5059V8C12.4004 6.34315 13.7435 5 15.4004 5H16.6006ZM16 7.66699C15.4477 7.66699 15 8.11471 15 8.66699V17.2227H17V8.66699C17 8.11471 16.5523 7.66699 16 7.66699Z" fill="#0D0E0F"/>
</svg>
