<svg width="26" height="26" viewBox="0 0 26 26" fill="none" xmlns="http://www.w3.org/2000/svg">
<path d="M3 12.1426V24.1426H21V12.1426H3ZM10.8346 22.1437L11.0624 18.3566L8.86263 17.9286L13.1654 13.7123L12.9966 17.4474L15.1385 17.9286L10.8346 22.1437V22.1437Z" fill="#FEFEFE"/>
<path d="M0 9.14258C0 9.69486 0.447715 10.1426 1 10.1426H23C23.5523 10.1426 24 9.69486 24 9.14258V8.14258C24 7.59029 23.5523 7.14258 23 7.14258H1C0.447716 7.14258 0 7.59029 0 8.14258V9.14258Z" fill="#FEFEFE"/>
<path d="M5 4.14258C5 4.69486 5.44772 5.14258 6 5.14258H8C8.55228 5.14258 9 4.69486 9 4.14258V3.14258C9 2.59029 8.55228 2.14258 8 2.14258H6C5.44772 2.14258 5 2.59029 5 3.14258V4.14258Z" fill="#FEFEFE"/>
<path d="M16 4.14258C16 4.69486 16.4477 5.14258 17 5.14258H19C19.5523 5.14258 20 4.69486 20 4.14258V3.14258C20 2.59029 19.5523 2.14258 19 2.14258H17C16.4477 2.14258 16 2.59029 16 3.14258V4.14258Z" fill="#FEFEFE"/>
</svg>
